ffmpeg started on 2016-12-08 at 20:30:40
Report written to "Output/x264/results/ffmpeg/sintelveryslow8000k.log"
Command line:
Tools/ffmpeg/ffmpeg -benchmark -y -i Input/y4m/sintel.y4m -c:v libx264 -preset veryslow -b:v 8000k -an Output/x264/encoded/sintelveryslow8000k.mkv
ffmpeg version N-82227-gdb23fde Copyright (c) 2000-2016 the FFmpeg developers
  built with gcc 5.4.0 (Ubuntu 5.4.0-6ubuntu1~16.04.2) 20160609
  configuration: --prefix=/home/jaroslav/ffmpeg_build --pkg-config-flags=--static --extra-cflags=-I/home/jaroslav/ffmpeg_build/include --extra-ldflags=-L/home/jaroslav/ffmpeg_build/lib --bindir=/home/jaroslav/bin --enable-gpl --enable-libass --enable-libfdk-aac --enable-libfreetype --enable-libmp3lame --enable-libopus --enable-libtheora --enable-libvorbis --enable-libvpx --enable-libx264 --enable-libx265 --enable-nvenc --enable-libmfx --enable-libxvid --enable-libgsm --enable-libopencore-amrnb --enable-version3 --enable-nonfree
  libavutil      55. 35.100 / 55. 35.100
  libavcodec     57. 66.101 / 57. 66.101
  libavformat    57. 57.100 / 57. 57.100
  libavdevice    57.  2.100 / 57.  2.100
  libavfilter     6. 66.100 /  6. 66.100
  libswscale      4.  3.100 /  4.  3.100
  libswresample   2.  4.100 /  2.  4.100
  libpostproc    54.  2.100 / 54.  2.100
Input #0, yuv4mpegpipe, from 'Input/y4m/sintel.y4m':
  Duration: 00:00:20.83, start: 0.000000, bitrate: 2057307 kb/s
    Stream #0:0: Video: rawvideo (I420 / 0x30323449), yuv420p(progressive), 4096x1744, SAR 1:1 DAR 256:109, 24 fps, 24 tbr, 24 tbn, 24 tbc
[libx264 @ 0x2a7e1c0] using SAR=1/1
[libx264 @ 0x2a7e1c0] DPB size (16 frames, 446464 mbs) > level limit (6 frames, 184320 mbs)
[libx264 @ 0x2a7e1c0] using cpu capabilities: MMX2 SSE2Fast SSSE3 SSE4.2 AVX FMA3 AVX2 LZCNT BMI2
[libx264 @ 0x2a7e1c0] profile High, level 5.2
[libx264 @ 0x2a7e1c0] 264 - core 148 - H.264/MPEG-4 AVC codec - Copyleft 2003-2016 - http://www.videolan.org/x264.html - options: cabac=1 ref=16 deblock=1:0:0 analyse=0x3:0x133 me=umh subme=10 psy=1 psy_rd=1.00:0.00 mixed_ref=1 me_range=24 chroma_me=1 trellis=2 8x8dct=1 cqm=0 deadzone=21,11 fast_pskip=1 chroma_qp_offset=-2 threads=6 lookahead_threads=1 sliced_threads=0 nr=0 decimate=1 interlaced=0 bluray_compat=0 constrained_intra=0 bframes=8 b_pyramid=2 b_adapt=2 b_bias=0 direct=3 weightb=1 open_gop=0 weightp=2 keyint=250 keyint_min=24 scenecut=40 intra_refresh=0 rc_lookahead=60 rc=abr mbtree=1 bitrate=8000 ratetol=1.0 qcomp=0.60 qpmin=0 qpmax=69 qpstep=4 ip_ratio=1.40 aq=1:1.00
Output #0, matroska, to 'Output/x264/encoded/sintelveryslow8000k.mkv':
  Metadata:
    encoder         : Lavf57.57.100
    Stream #0:0: Video: h264 (libx264) (H264 / 0x34363248), yuv420p, 4096x1744 [SAR 1:1 DAR 256:109], q=-1--1, 8000 kb/s, 24 fps, 1k tbn, 24 tbc
    Metadata:
      encoder         : Lavc57.66.101 libx264
    Side data:
      cpb: bitrate max/min/avg: 0/0/8000000 buffer size: 0 vbv_delay: -1
Stream mapping:
  Stream #0:0 -> #0:0 (rawvideo (native) -> h264 (libx264))
Press [q] to stop, [?] for help
frame=   11 fps=0.0 q=0.0 size=       0kB time=00:00:00.00 bitrate=N/A speed=   0x    frame=   19 fps= 18 q=0.0 size=       0kB time=00:00:00.00 bitrate=N/A speed=   0x    frame=   23 fps= 14 q=0.0 size=       0kB time=00:00:00.00 bitrate=N/A speed=   0x    frame=   26 fps=6.1 q=0.0 size=       0kB time=00:00:00.00 bitrate=N/A speed=   0x    frame=   27 fps=3.7 q=0.0 size=       0kB time=00:00:00.00 bitrate=N/A speed=   0x    frame=   28 fps=2.6 q=0.0 size=       0kB time=00:00:00.00 bitrate=N/A speed=   0x    frame=   29 fps=2.5 q=0.0 size=       0kB time=00:00:00.00 bitrate=N/A speed=   0x    frame=   38 fps=3.1 q=0.0 size=       0kB time=00:00:00.00 bitrate=N/A speed=   0x    frame=   46 fps=3.6 q=0.0 size=       0kB time=00:00:00.00 bitrate=N/A speed=   0x    frame=   55 fps=4.1 q=0.0 size=       0kB time=00:00:00.00 bitrate=N/A speed=   0x    frame=   63 fps=4.5 q=0.0 size=       0kB time=00:00:00.00 bitrate=N/A speed=   0x    frame=   69 fps=4.7 q=0.0 size=       0kB time=00:00:00.00 bitrate=N/A speed=   0x    frame=   72 fps=2.2 q=0.0 size=       0kB time=00:00:00.00 bitrate=N/A speed=   0x    frame=   73 fps=2.2 q=0.0 size=       0kB time=00:00:00.00 bitrate=N/A speed=   0x    frame=   76 fps=2.2 q=26.0 size=       1kB time=-00:00:00.08 bitrate=N/A speed=N/A    frame=   78 fps=2.2 q=35.0 size=       1kB time=00:00:00.00 bitrate=5888.0kbits/s speed=2.8e-05x    frame=   79 fps=2.1 q=31.0 size=       1kB time=00:00:00.04 bitrate= 136.9kbits/s speed=0.00115x    frame=   80 fps=2.1 q=43.0 size=       1kB time=00:00:00.08 bitrate=  70.1kbits/s speed=0.0022x    frame=   81 fps=2.1 q=38.0 size=       1kB time=00:00:00.12 bitrate=  46.7kbits/s speed=0.00324x    frame=   82 fps=2.0 q=41.0 size=       1kB time=00:00:00.16 bitrate=  35.0kbits/s speed=0.00419x    frame=   83 fps=2.0 q=44.0 size=       1kB time=00:00:00.20 bitrate=  28.2kbits/s speed=0.00511x    frame=   86 fps=2.0 q=44.0 size=       1kB time=00:00:00.33 bitrate=  17.6kbits/s speed=0.00785x    frame=   88 fps=2.0 q=44.0 size=       1kB time=00:00:00.41 bitrate=  14.1kbits/s speed=0.00963x    frame=   89 fps=2.0 q=43.0 size=       1kB time=00:00:00.45 bitrate=  12.8kbits/s speed=0.0103x    frame=   90 fps=2.0 q=43.0 size=       1kB time=00:00:00.50 bitrate=  11.8kbits/s speed=0.011x    frame=   92 fps=2.0 q=43.0 size=       1kB time=00:00:00.58 bitrate=  10.1kbits/s speed=0.0124x    frame=   93 fps=1.9 q=43.0 size=       1kB time=00:00:00.62 bitrate=   9.4kbits/s speed=0.0128x    frame=   94 fps=1.9 q=43.0 size=       1kB time=00:00:00.66 bitrate=   8.8kbits/s speed=0.0135x    frame=   95 fps=1.9 q=43.0 size=       1kB time=00:00:00.70 bitrate=   8.3kbits/s speed=0.0141x    frame=   96 fps=1.9 q=43.0 size=       1kB time=00:00:00.75 bitrate=   7.8kbits/s speed=0.0146x    frame=   97 fps=1.8 q=43.0 size=       1kB time=00:00:00.79 bitrate=   7.4kbits/s speed=0.015x    frame=   98 fps=1.8 q=43.0 size=       1kB time=00:00:00.83 bitrate=   7.1kbits/s speed=0.0155x    frame=   99 fps=1.8 q=43.0 size=       1kB time=00:00:00.87 bitrate=   6.7kbits/s speed=0.0158x    frame=  100 fps=1.8 q=43.0 size=       1kB time=00:00:00.91 bitrate=   6.4kbits/s speed=0.0162x    frame=  101 fps=1.7 q=43.0 size=       1kB time=00:00:00.95 bitrate=   6.1kbits/s speed=0.0164x    frame=  102 fps=1.7 q=42.0 size=       1kB time=00:00:01.00 bitrate=   5.9kbits/s speed=0.017x    frame=  104 fps=1.7 q=42.0 size=       1kB time=00:00:01.08 bitrate=   5.4kbits/s speed=0.0181x    frame=  105 fps=1.7 q=42.0 size=       1kB time=00:00:01.12 bitrate=   5.2kbits/s speed=0.0186x    frame=  106 fps=1.7 q=42.0 size=       1kB time=00:00:01.16 bitrate=   5.0kbits/s speed=0.0187x    frame=  107 fps=1.7 q=42.0 size=       1kB time=00:00:01.20 bitrate=   4.9kbits/s speed=0.0191x    frame=  108 fps=1.6 q=42.0 size=       1kB time=00:00:01.25 bitrate=   4.7kbits/s speed=0.0191x    frame=  109 fps=1.6 q=42.0 size=       1kB time=00:00:01.29 bitrate=   4.6kbits/s speed=0.0195x    frame=  110 fps=1.6 q=42.0 size=       1kB time=00:00:01.33 bitrate=   4.4kbits/s speed=0.0199x    frame=  111 fps=1.6 q=42.0 size=       1kB time=00:00:01.37 bitrate=   4.3kbits/s speed=0.0201x    frame=  112 fps=1.6 q=42.0 size=       1kB time=00:00:01.41 bitrate=   4.2kbits/s speed=0.0205x    frame=  113 fps=1.6 q=41.0 size=       1kB time=00:00:01.45 bitrate=   4.0kbits/s speed=0.0207x    frame=  114 fps=1.6 q=41.0 size=       1kB time=00:00:01.50 bitrate=   3.9kbits/s speed=0.021x    frame=  115 fps=1.6 q=41.0 size=       1kB time=00:00:01.54 bitrate=   3.8kbits/s speed=0.0214x    frame=  116 fps=1.6 q=41.0 size=       1kB time=00:00:01.58 bitrate=   3.7kbits/s speed=0.0217x    frame=  117 fps=1.6 q=41.0 size=       1kB time=00:00:01.62 bitrate=   3.6kbits/s speed=0.022x    frame=  118 fps=1.6 q=41.0 size=       1kB time=00:00:01.66 bitrate=   3.5kbits/s speed=0.0224x    frame=  119 fps=1.6 q=41.0 size=       1kB time=00:00:01.70 bitrate=   3.4kbits/s speed=0.0226x    frame=  120 fps=1.6 q=41.0 size=       1kB time=00:00:01.75 bitrate=   3.4kbits/s speed=0.0229x    frame=  121 fps=1.6 q=41.0 size=       1kB time=00:00:01.79 bitrate=   3.3kbits/s speed=0.0231x    frame=  122 fps=1.6 q=41.0 size=       1kB time=00:00:01.83 bitrate=   3.2kbits/s speed=0.0234x    frame=  123 fps=1.6 q=41.0 size=       1kB time=00:00:01.87 bitrate=   3.1kbits/s speed=0.0238x    frame=  124 fps=1.6 q=40.0 size=       1kB time=00:00:01.91 bitrate=   3.1kbits/s speed=0.0242x    frame=  125 fps=1.5 q=40.0 size=       1kB time=00:00:01.95 bitrate=   3.0kbits/s speed=0.0243x    frame=  127 fps=1.5 q=40.0 size=       1kB time=00:00:02.04 bitrate=   2.9kbits/s speed=0.0248x    frame=  128 fps=1.5 q=40.0 size=       1kB time=00:00:02.08 bitrate=   2.8kbits/s speed=0.0247x    frame=  129 fps=1.5 q=40.0 size=       1kB time=00:00:02.12 bitrate=   2.8kbits/s speed=0.025x    frame=  130 fps=1.5 q=40.0 size=       1kB time=00:00:02.16 bitrate=   2.7kbits/s speed=0.0251x    frame=  131 fps=1.5 q=40.0 size=       1kB time=00:00:02.20 bitrate=   2.7kbits/s speed=0.0253x    frame=  132 fps=1.5 q=40.0 size=       1kB time=00:00:02.25 bitrate=   2.6kbits/s speed=0.0253x    frame=  133 fps=1.5 q=40.0 size=       1kB time=00:00:02.29 bitrate=   2.6kbits/s speed=0.0255x    frame=  134 fps=1.5 q=40.0 size=       1kB time=00:00:02.33 bitrate=   2.5kbits/s speed=0.0255x    frame=  135 fps=1.5 q=40.0 size=       1kB time=00:00:02.37 bitrate=   2.5kbits/s speed=0.0256x    frame=  136 fps=1.4 q=40.0 size=       1kB time=00:00:02.41 bitrate=   2.4kbits/s speed=0.0258x    frame=  137 fps=1.4 q=40.0 size=       1kB time=00:00:02.45 bitrate=   2.4kbits/s speed=0.0259x    frame=  138 fps=1.4 q=40.0 size=       1kB time=00:00:02.50 bitrate=   2.4kbits/s speed=0.0261x    frame=  139 fps=1.4 q=40.0 size=       1kB time=00:00:02.54 bitrate=   2.3kbits/s speed=0.0263x    frame=  140 fps=1.4 q=40.0 size=       1kB time=00:00:02.58 bitrate=   2.3kbits/s speed=0.0264x    frame=  141 fps=1.4 q=40.0 size=       1kB time=00:00:02.62 bitrate=   2.2kbits/s speed=0.0265x    frame=  142 fps=1.4 q=40.0 size=       1kB time=00:00:02.66 bitrate=   2.2kbits/s speed=0.0261x    frame=  143 fps=1.4 q=40.0 size=       1kB time=00:00:02.70 bitrate=   2.2kbits/s speed=0.0263x    frame=  144 fps=1.4 q=40.0 size=       1kB time=00:00:02.75 bitrate=   2.1kbits/s speed=0.0265x    frame=  145 fps=1.4 q=40.0 size=       1kB time=00:00:02.79 bitrate=   2.1kbits/s speed=0.0267x    frame=  146 fps=1.4 q=40.0 size=       1kB time=00:00:02.83 bitrate=   2.1kbits/s speed=0.0269x    frame=  147 fps=1.4 q=40.0 size=       1kB time=00:00:02.87 bitrate=   2.0kbits/s speed=0.027x    frame=  148 fps=1.4 q=40.0 size=       1kB time=00:00:02.91 bitrate=   2.0kbits/s speed=0.0266x    frame=  149 fps=1.3 q=40.0 size=       1kB time=00:00:02.95 bitrate=   2.0kbits/s speed=0.0268x    frame=  150 fps=1.4 q=39.0 size=       1kB time=00:00:03.00 bitrate=   2.0kbits/s speed=0.027x    frame=  151 fps=1.3 q=39.0 size=       1kB time=00:00:03.04 bitrate=   1.9kbits/s speed=0.027x    frame=  152 fps=1.3 q=39.0 size=       1kB time=00:00:03.08 bitrate=   1.9kbits/s speed=0.0272x    frame=  153 fps=1.3 q=39.0 size=       1kB time=00:00:03.12 bitrate=   1.9kbits/s speed=0.0274x    frame=  154 fps=1.3 q=39.0 size=       1kB time=00:00:03.16 bitrate=   1.9kbits/s speed=0.0272x    frame=  155 fps=1.3 q=39.0 size=       1kB time=00:00:03.20 bitrate=   1.8kbits/s speed=0.0274x    frame=  156 fps=1.3 q=39.0 size=       1kB time=00:00:03.25 bitrate=   1.8kbits/s speed=0.0274x    frame=  157 fps=1.3 q=39.0 size=       1kB time=00:00:03.29 bitrate=   1.8kbits/s speed=0.0274x    frame=  158 fps=1.3 q=39.0 size=       1kB time=00:00:03.33 bitrate=   1.8kbits/s speed=0.0275x    frame=  159 fps=1.3 q=39.0 size=       1kB time=00:00:03.37 bitrate=   1.7kbits/s speed=0.0276x    frame=  160 fps=1.3 q=39.0 size=       1kB time=00:00:03.41 bitrate=   1.7kbits/s speed=0.0277x    frame=  161 fps=1.3 q=39.0 size=       1kB time=00:00:03.45 bitrate=   1.7kbits/s speed=0.0277x    frame=  162 fps=1.3 q=39.0 size=       1kB time=00:00:03.50 bitrate=   1.7kbits/s speed=0.0278x    frame=  163 fps=1.3 q=39.0 size=       1kB time=00:00:03.54 bitrate=   1.7kbits/s speed=0.0279x    frame=  164 fps=1.3 q=39.0 size=       1kB time=00:00:03.58 bitrate=   1.6kbits/s speed=0.0279x    frame=  165 fps=1.3 q=39.0 size=       1kB time=00:00:03.62 bitrate=   1.6kbits/s speed=0.0279x    frame=  166 fps=1.3 q=39.0 size=       1kB time=00:00:03.66 bitrate=   1.6kbits/s speed=0.028x    frame=  167 fps=1.3 q=39.0 size=       1kB time=00:00:03.70 bitrate=   1.6kbits/s speed=0.0281x    frame=  168 fps=1.3 q=39.0 size=       1kB time=00:00:03.75 bitrate=   1.6kbits/s speed=0.0283x    frame=  170 fps=1.3 q=39.0 size=       1kB time=00:00:03.83 bitrate=   1.5kbits/s speed=0.0286x    frame=  171 fps=1.3 q=39.0 size=       1kB time=00:00:03.87 bitrate=   1.5kbits/s speed=0.0285x    frame=  172 fps=1.2 q=38.0 size=       1kB time=00:00:03.91 bitrate=   1.5kbits/s speed=0.0284x    frame=  173 fps=1.2 q=39.0 size=       1kB time=00:00:03.95 bitrate=   1.5kbits/s speed=0.0286x    frame=  175 fps=1.3 q=38.0 size=       1kB time=00:00:04.04 bitrate=   1.5kbits/s speed=0.029x    frame=  176 fps=1.3 q=38.0 size=       1kB time=00:00:04.08 bitrate=   1.4kbits/s speed=0.0292x    frame=  177 fps=1.3 q=38.0 size=       1kB time=00:00:04.12 bitrate=   1.4kbits/s speed=0.0294x    frame=  178 fps=1.2 q=38.0 size=       1kB time=00:00:04.16 bitrate=   1.4kbits/s speed=0.029x    frame=  180 fps=1.2 q=38.0 size=       1kB time=00:00:04.25 bitrate=   1.4kbits/s speed=0.0294x    frame=  181 fps=1.2 q=38.0 size=       1kB time=00:00:04.29 bitrate=   1.4kbits/s speed=0.0296x    frame=  182 fps=1.2 q=38.0 size=       1kB time=00:00:04.33 bitrate=   1.4kbits/s speed=0.0295x    frame=  184 fps=1.2 q=38.0 size=       1kB time=00:00:04.41 bitrate=   1.3kbits/s speed=0.0299x    frame=  186 fps=1.2 q=38.0 size=       1kB time=00:00:04.50 bitrate=   1.3kbits/s speed=0.0301x    frame=  187 fps=1.2 q=38.0 size=       1kB time=00:00:04.54 bitrate=   1.3kbits/s speed=0.0302x    frame=  188 fps=1.2 q=38.0 size=       1kB time=00:00:04.58 bitrate=   1.3kbits/s speed=0.03x    frame=  189 fps=1.2 q=38.0 size=       1kB time=00:00:04.62 bitrate=   1.3kbits/s speed=0.0302x    frame=  191 fps=1.2 q=38.0 size=       1kB time=00:00:04.70 bitrate=   1.3kbits/s speed=0.0305x    frame=  192 fps=1.2 q=38.0 size=       1kB time=00:00:04.75 bitrate=   1.2kbits/s speed=0.0301x    frame=  193 fps=1.2 q=38.0 size=       1kB time=00:00:04.79 bitrate=   1.2kbits/s speed=0.0302x    frame=  195 fps=1.2 q=38.0 size=    4884kB time=00:00:04.87 bitrate=8204.9kbits/s speed=0.0306x    frame=  196 fps=1.2 q=38.0 size=    4884kB time=00:00:04.91 bitrate=8134.8kbits/s speed=0.0306x    frame=  197 fps=1.2 q=38.0 size=    4884kB time=00:00:04.95 bitrate=8067.5kbits/s speed=0.0307x    frame=  198 fps=1.2 q=38.0 size=    4884kB time=00:00:05.00 bitrate=7999.8kbits/s speed=0.0307x    frame=  199 fps=1.2 q=38.0 size=    4884kB time=00:00:05.04 bitrate=7933.2kbits/s speed=0.0307x    frame=  200 fps=1.2 q=38.0 size=    4884kB time=00:00:05.08 bitrate=7869.2kbits/s speed=0.0307x    frame=  201 fps=1.2 q=38.0 size=    4884kB time=00:00:05.12 bitrate=7804.7kbits/s speed=0.0308x    frame=  202 fps=1.2 q=38.0 size=    4884kB time=00:00:05.16 bitrate=7741.3kbits/s speed=0.0309x    frame=  203 fps=1.2 q=38.0 size=    4884kB time=00:00:05.20 bitrate=7680.3kbits/s speed=0.0309x    frame=  204 fps=1.2 q=38.0 size=    4884kB time=00:00:05.25 bitrate=7618.9kbits/s speed=0.031x    frame=  205 fps=1.2 q=38.0 size=    4884kB time=00:00:05.29 bitrate=7558.5kbits/s speed=0.0311x    frame=  206 fps=1.2 q=38.0 size=    4884kB time=00:00:05.33 bitrate=7500.4kbits/s speed=0.0312x    frame=  207 fps=1.2 q=38.0 size=    4884kB time=00:00:05.37 bitrate=7441.8kbits/s speed=0.0312x    frame=  208 fps=1.2 q=38.0 size=    4884kB time=00:00:05.41 bitrate=7384.1kbits/s speed=0.0313x    frame=  209 fps=1.2 q=38.0 size=    4884kB time=00:00:05.45 bitrate=7328.6kbits/s speed=0.0314x    frame=  210 fps=1.2 q=38.0 size=    4884kB time=00:00:05.50 bitrate=7272.7kbits/s speed=0.0314x    frame=  211 fps=1.2 q=38.0 size=    4884kB time=00:00:05.54 bitrate=7217.6kbits/s speed=0.0315x    frame=  212 fps=1.2 q=38.0 size=    4884kB time=00:00:05.58 bitrate=7164.6kbits/s speed=0.0316x    frame=  213 fps=1.2 q=38.0 size=    4884kB time=00:00:05.62 bitrate=7111.1kbits/s speed=0.0317x    frame=  214 fps=1.2 q=37.0 size=    4884kB time=00:00:05.66 bitrate=7058.4kbits/s speed=0.0319x    frame=  216 fps=1.2 q=37.0 size=    4884kB time=00:00:05.75 bitrate=6956.5kbits/s speed=0.0321x    frame=  217 fps=1.2 q=37.0 size=    4884kB time=00:00:05.79 bitrate=6906.1kbits/s speed=0.0321x    frame=  218 fps=1.2 q=37.0 size=    4884kB time=00:00:05.83 bitrate=6857.5kbits/s speed=0.0321x    frame=  219 fps=1.2 q=37.0 size=    4884kB time=00:00:05.87 bitrate=6808.5kbits/s speed=0.0322x    frame=  220 fps=1.2 q=37.0 size=    4884kB time=00:00:05.91 bitrate=6760.2kbits/s speed=0.0323x    frame=  221 fps=1.2 q=37.0 size=    4884kB time=00:00:05.95 bitrate=6713.7kbits/s speed=0.0323x    frame=  222 fps=1.2 q=37.0 size=    4884kB time=00:00:06.00 bitrate=6666.7kbits/s speed=0.0325x    frame=  223 fps=1.2 q=37.0 size=    4884kB time=00:00:06.04 bitrate=6620.4kbits/s speed=0.0325x    frame=  224 fps=1.2 q=37.0 size=    4884kB time=00:00:06.08 bitrate=6575.8kbits/s speed=0.0325x    frame=  225 fps=1.2 q=37.0 size=    4884kB time=00:00:06.12 bitrate=6530.7kbits/s speed=0.0326x    frame=  226 fps=1.2 q=37.0 size=    4884kB time=00:00:06.16 bitrate=6486.2kbits/s speed=0.0327x    frame=  227 fps=1.2 q=37.0 size=    4884kB time=00:00:06.20 bitrate=6443.4kbits/s speed=0.0327x    frame=  228 fps=1.2 q=37.0 size=    4884kB time=00:00:06.25 bitrate=6400.1kbits/s speed=0.0328x    frame=  229 fps=1.2 q=37.0 size=    4884kB time=00:00:06.29 bitrate=6357.4kbits/s speed=0.0328x    frame=  230 fps=1.2 q=37.0 size=    4884kB time=00:00:06.33 bitrate=6316.2kbits/s speed=0.033x    frame=  233 fps=1.2 q=37.0 size=    4884kB time=00:00:06.45 bitrate=6194.0kbits/s speed=0.0328x    frame=  234 fps=1.2 q=37.0 size=    4884kB time=00:00:06.50 bitrate=6154.0kbits/s speed=0.0329x    frame=  235 fps=1.2 q=37.0 size=    4884kB time=00:00:06.54 bitrate=6114.5kbits/s speed=0.033x    frame=  236 fps=1.2 q=37.0 size=    4884kB time=00:00:06.58 bitrate=6076.4kbits/s speed=0.0331x    frame=  237 fps=1.2 q=37.0 size=    4884kB time=00:00:06.62 bitrate=6037.9kbits/s speed=0.0331x    frame=  238 fps=1.2 q=37.0 size=    4884kB time=00:00:06.66 bitrate=5999.8kbits/s speed=0.0332x    frame=  239 fps=1.2 q=37.0 size=    4884kB time=00:00:06.70 bitrate=5963.2kbits/s speed=0.0331x    frame=  240 fps=1.2 q=37.0 size=    4884kB time=00:00:06.75 bitrate=5926.1kbits/s speed=0.0331x    frame=  241 fps=1.2 q=37.0 size=    4884kB time=00:00:06.79 bitrate=5889.4kbits/s speed=0.0332x    frame=  242 fps=1.2 q=37.0 size=    4884kB time=00:00:06.83 bitrate=5854.1kbits/s speed=0.0333x    frame=  244 fps=1.2 q=37.0 size=    4884kB time=00:00:06.91 bitrate=5783.0kbits/s speed=0.0335x    frame=  245 fps=1.2 q=37.0 size=    4884kB time=00:00:06.95 bitrate=5748.9kbits/s speed=0.0335x    frame=  246 fps=1.2 q=37.0 size=    4884kB time=00:00:07.00 bitrate=5714.5kbits/s speed=0.0335x    frame=  247 fps=1.2 q=37.0 size=    4884kB time=00:00:07.04 bitrate=5680.4kbits/s speed=0.0335x    frame=  249 fps=1.2 q=37.0 size=    4884kB time=00:00:07.12 bitrate=5614.2kbits/s speed=0.0337x    frame=  250 fps=1.2 q=37.0 size=    4884kB time=00:00:07.16 bitrate=5581.3kbits/s speed=0.0338x    frame=  251 fps=1.2 q=37.0 size=    4884kB time=00:00:07.20 bitrate=5549.6kbits/s speed=0.0339x    frame=  252 fps=1.2 q=37.0 size=    4884kB time=00:00:07.25 bitrate=5517.4kbits/s speed=0.0338x    frame=  253 fps=1.2 q=37.0 size=    4884kB time=00:00:07.29 bitrate=5485.7kbits/s speed=0.0338x    frame=  255 fps=1.2 q=37.0 size=    4884kB time=00:00:07.37 bitrate=5423.9kbits/s speed=0.034x    frame=  256 fps=1.2 q=37.0 size=    4884kB time=00:00:07.41 bitrate=5393.2kbits/s speed=0.0339x    frame=  257 fps=1.2 q=37.0 size=    4884kB time=00:00:07.45 bitrate=5363.6kbits/s speed=0.034x    frame=  258 fps=1.2 q=37.0 size=    4884kB time=00:00:07.50 bitrate=5333.5kbits/s speed=0.034x    frame=  260 fps=1.2 q=37.0 size=    4884kB time=00:00:07.58 bitrate=5275.2kbits/s speed=0.0339x    frame=  261 fps=1.2 q=37.0 size=    4884kB time=00:00:07.62 bitrate=5246.1kbits/s speed=0.0339x    frame=  262 fps=1.2 q=37.0 size=    4884kB time=00:00:07.66 bitrate=5217.4kbits/s speed=0.0341x    frame=  266 fps=1.2 q=36.0 size=    4884kB time=00:00:07.83 bitrate=5106.8kbits/s speed=0.0345x    frame=  267 fps=1.2 q=36.0 size=    4884kB time=00:00:07.87 bitrate=5079.6kbits/s speed=0.0342x    frame=  268 fps=1.2 q=36.0 size=    4884kB time=00:00:07.91 bitrate=5052.7kbits/s speed=0.0344x    frame=  269 fps=1.2 q=36.0 size=    4884kB time=00:00:07.95 bitrate=5026.6kbits/s speed=0.0345x    frame=  272 fps=1.2 q=36.0 size=    4884kB time=00:00:08.08 bitrate=4948.9kbits/s speed=0.0348x    frame=  273 fps=1.2 q=36.0 size=    4884kB time=00:00:08.12 bitrate=4923.3kbits/s speed=0.0346x    frame=  274 fps=1.2 q=36.0 size=    4884kB time=00:00:08.16 bitrate=4898.0kbits/s speed=0.0346x    frame=  275 fps=1.2 q=36.0 size=    4884kB time=00:00:08.20 bitrate=4873.5kbits/s speed=0.0347x    frame=  276 fps=1.2 q=36.0 size=    4884kB time=00:00:08.25 bitrate=4848.7kbits/s speed=0.0347x    frame=  277 fps=1.2 q=36.0 size=    4884kB time=00:00:08.29 bitrate=4824.2kbits/s speed=0.0348x    frame=  278 fps=1.2 q=36.0 size=    4884kB time=00:00:08.33 bitrate=4800.4kbits/s speed=0.0349x    frame=  279 fps=1.2 q=36.0 size=    4884kB time=00:00:08.37 bitrate=4776.4kbits/s speed=0.0349x    frame=  280 fps=1.2 q=36.0 size=    4884kB time=00:00:08.41 bitrate=4752.5kbits/s speed=0.035x    frame=  281 fps=1.2 q=36.0 size=    4884kB time=00:00:08.45 bitrate=4729.5kbits/s speed=0.0349x    frame=  283 fps=1.2 q=36.0 size=    4884kB time=00:00:08.54 bitrate=4683.0kbits/s speed=0.0351x    frame=  284 fps=1.2 q=36.0 size=    4884kB time=00:00:08.58 bitrate=4660.6kbits/s speed=0.035x    frame=  287 fps=1.2 q=36.0 size=    4884kB time=00:00:08.70 bitrate=4593.7kbits/s speed=0.0353x    frame=  288 fps=1.2 q=36.0 size=    4884kB time=00:00:08.75 bitrate=4571.7kbits/s speed=0.0354x    frame=  289 fps=1.2 q=36.0 size=    4884kB time=00:00:08.79 bitrate=4549.9kbits/s speed=0.0353x    frame=  292 fps=1.2 q=36.0 size=    4884kB time=00:00:08.91 bitrate=4486.1kbits/s speed=0.0355x    frame=  294 fps=1.2 q=36.0 size=    4884kB time=00:00:09.00 bitrate=4444.7kbits/s speed=0.0357x    frame=  295 fps=1.2 q=36.0 size=    4884kB time=00:00:09.04 bitrate=4424.1kbits/s speed=0.0354x    frame=  297 fps=1.2 q=36.0 size=    4884kB time=00:00:09.12 bitrate=4383.8kbits/s speed=0.0356x    frame=  298 fps=1.2 q=36.0 size=    4884kB time=00:00:09.16 bitrate=4363.8kbits/s speed=0.0357x    frame=  300 fps=1.2 q=36.0 size=    4884kB time=00:00:09.25 bitrate=4324.6kbits/s speed=0.0359x    frame=  301 fps=1.2 q=36.0 size=    4884kB time=00:00:09.29 bitrate=4305.1kbits/s speed=0.0358x    frame=  302 fps=1.2 q=36.0 size=    4884kB time=00:00:09.33 bitrate=4286.1kbits/s speed=0.0358x    frame=  303 fps=1.2 q=36.0 size=    4884kB time=00:00:09.37 bitrate=4266.9kbits/s speed=0.0357x    frame=  306 fps=1.2 q=36.0 size=    4884kB time=00:00:09.50 bitrate=4210.8kbits/s speed=0.0361x    frame=  308 fps=1.2 q=36.0 size=    4884kB time=00:00:09.58 bitrate=4174.3kbits/s speed=0.0363x    frame=  309 fps=1.2 q=35.0 size=    4884kB time=00:00:09.62 bitrate=4156.1kbits/s speed=0.036x    frame=  310 fps=1.2 q=35.0 size=    4884kB time=00:00:09.66 bitrate=4138.1kbits/s speed=0.0361x    frame=  312 fps=1.2 q=35.0 size=    4884kB time=00:00:09.75 bitrate=4102.9kbits/s speed=0.0362x    frame=  313 fps=1.2 q=35.0 size=    4884kB time=00:00:09.79 bitrate=4085.3kbits/s speed=0.0362x    frame=  316 fps=1.2 q=35.0 size=    4884kB time=00:00:09.91 bitrate=4033.8kbits/s speed=0.0366x    frame=  317 fps=1.2 q=35.0 size=    4884kB time=00:00:09.95 bitrate=4017.2kbits/s speed=0.0367x    frame=  318 fps=1.2 q=35.0 size=    9038kB time=00:00:10.00 bitrate=7403.5kbits/s speed=0.0367x    frame=  319 fps=1.2 q=35.0 size=    9038kB time=00:00:10.04 bitrate=7372.6kbits/s speed=0.0367x    frame=  320 fps=1.2 q=35.0 size=    9038kB time=00:00:10.08 bitrate=7342.6kbits/s speed=0.0368x    frame=  321 fps=1.2 q=33.0 size=    9038kB time=00:00:10.12 bitrate=7312.1kbits/s speed=0.0367x    frame=  322 fps=1.2 q=35.0 size=    9038kB time=00:00:10.16 bitrate=7281.9kbits/s speed=0.0368x    frame=  324 fps=1.2 q=35.0 size=    9038kB time=00:00:10.25 bitrate=7223.0kbits/s speed=0.0369x    frame=  326 fps=1.2 q=35.0 size=    9269kB time=00:00:10.33 bitrate=7348.0kbits/s speed=0.0371x    frame=  332 fps=1.2 q=35.0 size=    9269kB time=00:00:10.58 bitrate=7174.4kbits/s speed=0.0379x    frame=  334 fps=1.2 q=35.0 size=    9269kB time=00:00:10.66 bitrate=7117.9kbits/s speed=0.0381x    frame=  336 fps=1.2 q=32.0 size=    9269kB time=00:00:10.75 bitrate=7063.0kbits/s speed=0.0383x    frame=  338 fps=1.2 q=35.0 size=    9269kB time=00:00:10.83 bitrate=7008.9kbits/s speed=0.0385x    frame=  340 fps=1.2 q=35.0 size=    9269kB time=00:00:10.91 bitrate=6954.9kbits/s speed=0.0387x    frame=  343 fps=1.2 q=35.0 size=    9269kB time=00:00:11.04 bitrate=6876.2kbits/s speed=0.0388x    frame=  346 fps=1.2 q=35.0 size=    9269kB time=00:00:11.16 bitrate=6799.3kbits/s speed=0.039x    frame=  348 fps=1.2 q=35.0 size=    9269kB time=00:00:11.25 bitrate=6749.1kbits/s speed=0.0393x    frame=  349 fps=1.2 q=35.0 size=    9269kB time=00:00:11.29 bitrate=6724.0kbits/s speed=0.0391x    frame=  350 fps=1.2 q=35.0 size=    9269kB time=00:00:11.33 bitrate=6699.7kbits/s speed=0.0391x    frame=  353 fps=1.2 q=34.0 size=    9269kB time=00:00:11.45 bitrate=6626.6kbits/s speed=0.0394x    frame=  354 fps=1.2 q=34.0 size=    9269kB time=00:00:11.50 bitrate=6602.4kbits/s speed=0.0394x    frame=  356 fps=1.2 q=34.0 size=    9269kB time=00:00:11.58 bitrate=6555.1kbits/s speed=0.0395x    frame=  357 fps=1.2 q=34.0 size=    9269kB time=00:00:11.62 bitrate=6531.4kbits/s speed=0.0394x    frame=  358 fps=1.2 q=34.0 size=    9269kB time=00:00:11.66 bitrate=6507.9kbits/s speed=0.0395x    frame=  359 fps=1.2 q=34.0 size=    9269kB time=00:00:11.70 bitrate=6485.1kbits/s speed=0.0396x    frame=  360 fps=1.2 q=34.0 size=    9269kB time=00:00:11.75 bitrate=6461.9kbits/s speed=0.0396x    frame=  362 fps=1.2 q=34.0 size=    9269kB time=00:00:11.83 bitrate=6416.6kbits/s speed=0.0397x    frame=  364 fps=1.2 q=34.0 size=    9269kB time=00:00:11.91 bitrate=6371.4kbits/s speed=0.0397x    frame=  366 fps=1.2 q=34.0 size=    9269kB time=00:00:12.00 bitrate=6327.3kbits/s speed=0.0399x    frame=  368 fps=1.2 q=34.0 size=    9269kB time=00:00:12.08 bitrate=6283.9kbits/s speed=0.04x    frame=  370 fps=1.2 q=34.0 size=    9269kB time=00:00:12.16 bitrate=6240.5kbits/s speed=0.0401x    frame=  372 fps=1.2 q=34.0 size=    9269kB time=00:00:12.25 bitrate=6198.2kbits/s speed=0.0402x    frame=  374 fps=1.2 q=34.0 size=    9269kB time=00:00:12.33 bitrate=6156.5kbits/s speed=0.0403x    frame=  376 fps=1.2 q=34.0 size=    9269kB time=00:00:12.41 bitrate=6114.8kbits/s speed=0.0404x    frame=  378 fps=1.2 q=34.0 size=    9269kB time=00:00:12.50 bitrate=6074.2kbits/s speed=0.0406x    frame=  379 fps=1.2 q=34.0 size=    9269kB time=00:00:12.54 bitrate=6053.9kbits/s speed=0.0407x    frame=  382 fps=1.2 q=33.0 size=    9269kB time=00:00:12.66 bitrate=5994.2kbits/s speed=0.0407x    frame=  384 fps=1.2 q=34.0 size=    9269kB time=00:00:12.75 bitrate=5955.1kbits/s speed=0.0409x    frame=  388 fps=1.2 q=33.0 size=    9269kB time=00:00:12.91 bitrate=5878.2kbits/s speed=0.0411x    frame=  391 fps=1.2 q=33.0 size=    9269kB time=00:00:13.04 bitrate=5821.8kbits/s speed=0.0414x    frame=  393 fps=1.2 q=33.0 size=    9269kB time=00:00:13.12 bitrate=5785.0kbits/s speed=0.0415x    frame=  394 fps=1.2 q=33.0 size=    9269kB time=00:00:13.16 bitrate=5766.6kbits/s speed=0.0414x    frame=  399 fps=1.2 q=33.0 size=    9269kB time=00:00:13.37 bitrate=5676.9kbits/s speed=0.0418x    frame=  400 fps=1.2 q=33.0 size=    9269kB time=00:00:13.41 bitrate=5659.1kbits/s speed=0.0417x    frame=  404 fps=1.3 q=33.0 size=    9269kB time=00:00:13.58 bitrate=5590.0kbits/s speed=0.0421x    frame=  406 fps=1.3 q=33.0 size=    9269kB time=00:00:13.66 bitrate=5555.6kbits/s speed=0.0422x    frame=  408 fps=1.3 q=32.0 size=    9269kB time=00:00:13.75 bitrate=5522.1kbits/s speed=0.0423x    frame=  409 fps=1.3 q=32.0 size=    9269kB time=00:00:13.79 bitrate=5505.3kbits/s speed=0.0423x    frame=  413 fps=1.3 q=32.0 size=    9269kB time=00:00:13.95 bitrate=5439.8kbits/s speed=0.0425x    frame=  415 fps=1.3 q=32.0 size=    9269kB time=00:00:14.04 bitrate=5407.3kbits/s speed=0.0427x    frame=  419 fps=1.3 q=32.0 size=    9269kB time=00:00:14.20 bitrate=5344.1kbits/s speed=0.0428x    frame=  421 fps=1.3 q=32.0 size=    9269kB time=00:00:14.29 bitrate=5312.7kbits/s speed=0.043x    frame=  424 fps=1.3 q=32.0 size=    9269kB time=00:00:14.41 bitrate=5266.6kbits/s speed=0.0433x    frame=  425 fps=1.3 q=32.0 size=    9269kB time=00:00:14.45 bitrate=5251.7kbits/s speed=0.0431x    frame=  427 fps=1.3 q=32.0 size=    9269kB time=00:00:14.54 bitrate=5221.4kbits/s speed=0.0433x    frame=  429 fps=1.3 q=32.0 size=    9269kB time=00:00:14.62 bitrate=5191.7kbits/s speed=0.0435x    frame=  430 fps=1.3 q=31.0 size=    9269kB time=00:00:14.66 bitrate=5176.9kbits/s speed=0.0435x    frame=  431 fps=1.3 q=31.0 size=    9269kB time=00:00:14.70 bitrate=5162.4kbits/s speed=0.0434x    frame=  434 fps=1.3 q=31.0 size=    9269kB time=00:00:14.83 bitrate=5118.9kbits/s speed=0.0437x    frame=  437 fps=1.3 q=31.0 size=    9269kB time=00:00:14.95 bitrate=5076.1kbits/s speed=0.0439x    frame=  439 fps=1.3 q=31.0 size=    9269kB time=00:00:15.04 bitrate=5047.8kbits/s speed=0.0435x    frame=  441 fps=1.3 q=31.0 size=    9269kB time=00:00:15.12 bitrate=5020.1kbits/s speed=0.0436x    frame=  443 fps=1.3 q=31.0 size=    9269kB time=00:00:15.20 bitrate=4992.7kbits/s speed=0.0438x    frame=  445 fps=1.3 q=31.0 size=   12370kB time=00:00:15.29 bitrate=6626.2kbits/s speed=0.0438x    frame=  446 fps=1.3 q=31.0 size=   12370kB time=00:00:15.33 bitrate=6608.5kbits/s speed=0.0436x    frame=  448 fps=1.3 q=31.0 size=   12370kB time=00:00:15.41 bitrate=6572.5kbits/s speed=0.0438x    frame=  449 fps=1.3 q=31.0 size=   12370kB time=00:00:15.45 bitrate=6555.1kbits/s speed=0.0438x    frame=  450 fps=1.3 q=31.0 size=   12370kB time=00:00:15.50 bitrate=6537.3kbits/s speed=0.0438x    frame=  452 fps=1.3 q=31.0 size=   12370kB time=00:00:15.58 bitrate=6502.5kbits/s speed=0.0437x    frame=  454 fps=1.3 q=31.0 size=   12370kB time=00:00:15.66 bitrate=6467.6kbits/s speed=0.0438x    frame=  455 fps=1.3 q=31.0 size=   12370kB time=00:00:15.70 bitrate=6450.8kbits/s speed=0.0438x    frame=  456 fps=1.3 q=31.0 size=   12370kB time=00:00:15.75 bitrate=6433.6kbits/s speed=0.0438x    frame=  457 fps=1.3 q=31.0 size=   12370kB time=00:00:15.79 bitrate=6416.5kbits/s speed=0.0439x    frame=  459 fps=1.3 q=31.0 size=   12370kB time=00:00:15.87 bitrate=6382.9kbits/s speed=0.0438x    frame=  460 fps=1.3 q=31.0 size=   12370kB time=00:00:15.91 bitrate=6366.1kbits/s speed=0.0438x    frame=  461 fps=1.3 q=31.0 size=   12370kB time=00:00:15.95 bitrate=6349.7kbits/s speed=0.0439x    frame=  464 fps=1.3 q=31.0 size=   12370kB time=00:00:16.08 bitrate=6300.4kbits/s speed=0.0439x    frame=  465 fps=1.3 q=31.0 size=   12370kB time=00:00:16.12 bitrate=6284.0kbits/s speed=0.0439x    frame=  467 fps=1.3 q=31.0 size=   12370kB time=00:00:16.20 bitrate=6251.8kbits/s speed=0.0441x    frame=  468 fps=1.3 q=31.0 size=   12370kB time=00:00:16.25 bitrate=6235.6kbits/s speed=0.0439x    frame=  470 fps=1.3 q=31.0 size=   12370kB time=00:00:16.33 bitrate=6203.9kbits/s speed=0.0441x    frame=  471 fps=1.3 q=31.0 size=   12370kB time=00:00:16.37 bitrate=6188.0kbits/s speed=0.0439x    frame=  473 fps=1.3 q=31.0 size=   12370kB time=00:00:16.45 bitrate=6156.8kbits/s speed=0.0439x    frame=  476 fps=1.3 q=31.0 size=   12370kB time=00:00:16.58 bitrate=6110.4kbits/s speed=0.0439x    frame=  477 fps=1.3 q=31.0 size=   12370kB time=00:00:16.62 bitrate=6095.0kbits/s speed=0.0439x    frame=  481 fps=1.3 q=31.0 size=   12370kB time=00:00:16.79 bitrate=6034.4kbits/s speed=0.0442x    frame=  482 fps=1.3 q=31.0 size=   12370kB time=00:00:16.83 bitrate=6019.7kbits/s speed=0.044x    frame=  484 fps=1.3 q=31.0 size=   12370kB time=00:00:16.91 bitrate=5989.8kbits/s speed=0.0441x    frame=  485 fps=1.3 q=31.0 size=   12370kB time=00:00:16.95 bitrate=5975.3kbits/s speed=0.0441x    frame=  487 fps=1.3 q=31.0 size=   12370kB time=00:00:17.04 bitrate=5945.8kbits/s speed=0.0442x    frame=  488 fps=1.3 q=31.0 size=   12370kB time=00:00:17.08 bitrate=5931.6kbits/s speed=0.0442x    frame=  489 fps=1.3 q=31.0 size=   12370kB time=00:00:17.12 bitrate=5917.0kbits/s speed=0.0441x    frame=  491 fps=1.3 q=31.0 size=   12370kB time=00:00:17.20 bitrate=5888.5kbits/s speed=0.0442x    frame=  494 fps=1.3 q=31.0 size=   12370kB time=00:00:17.33 bitrate=5846.0kbits/s speed=0.0439x    frame=  496 fps=1.3 q=31.0 size=   12370kB time=00:00:17.41 bitrate=5817.8kbits/s speed=0.0441x    frame=  498 fps=1.3 q=31.0 size=   12370kB time=00:00:17.50 bitrate=5790.2kbits/s speed=0.0442x    frame=  499 fps=1.3 q=31.0 size=   12370kB time=00:00:17.54 bitrate=5776.4kbits/s speed=0.0442x    frame=  500 fps=1.3 q=31.0 size=   12370kB time=00:00:17.58 bitrate=5762.9kbits/s speed=0.0441x    frame=  500 fps=1.1 q=-1.0 Lsize=   17415kB time=00:00:20.70 bitrate=6888.9kbits/s speed=0.0464x    
video:17410kB audio:0kB subtitle:0kB other streams:0kB global headers:0kB muxing overhead: 0.026997%
bench: utime=1638.072s
bench: maxrss=2799868kB
[libx264 @ 0x2a7e1c0] frame I:3     Avg QP:25.80  size:187508
[libx264 @ 0x2a7e1c0] frame P:268   Avg QP:33.23  size: 45836
[libx264 @ 0x2a7e1c0] frame B:229   Avg QP:33.31  size: 21749
[libx264 @ 0x2a7e1c0] consecutive B-frames: 36.2%  7.6% 18.0% 17.6% 11.0%  9.6%  0.0%  0.0%  0.0%
[libx264 @ 0x2a7e1c0] mb I  I16..4: 18.6% 76.0%  5.3%
[libx264 @ 0x2a7e1c0] mb P  I16..4: 17.0% 24.4%  0.2%  P16..4: 25.6%  1.7%  1.3%  0.0%  0.0%    skip:29.8%
[libx264 @ 0x2a7e1c0] mb B  I16..4:  0.9%  1.7%  0.1%  B16..8: 30.5%  2.3%  0.4%  direct: 0.7%  skip:63.6%  L0:42.2% L1:55.6% BI: 2.2%
[libx264 @ 0x2a7e1c0] final ratefactor: 28.47
[libx264 @ 0x2a7e1c0] 8x8 transform intra:59.3% inter:88.5%
[libx264 @ 0x2a7e1c0] direct mvs  spatial:99.1% temporal:0.9%
[libx264 @ 0x2a7e1c0] coded y,uvDC,uvAC intra: 12.6% 15.8% 0.8% inter: 3.6% 2.7% 0.0%
[libx264 @ 0x2a7e1c0] i16 v,h,dc,p: 23% 26%  9% 42%
[libx264 @ 0x2a7e1c0] i8 v,h,dc,ddl,ddr,vr,hd,vl,hu: 20% 14% 38%  4%  5%  5%  6%  4%  5%
[libx264 @ 0x2a7e1c0] i4 v,h,dc,ddl,ddr,vr,hd,vl,hu: 14% 17%  8%  6% 12% 11% 14%  6% 12%
[libx264 @ 0x2a7e1c0] i8c dc,h,v,p: 73% 17%  8%  2%
[libx264 @ 0x2a7e1c0] Weighted P-Frames: Y:1.5% UV:1.1%
[libx264 @ 0x2a7e1c0] ref P L0: 61.4% 15.3% 10.0%  3.3%  2.1%  1.7%  1.4%  0.8%  0.8%  0.7%  0.6%  0.5%  0.4%  0.4%  0.3%  0.3%
[libx264 @ 0x2a7e1c0] ref B L0: 87.6%  5.8%  2.5%  1.0%  0.8%  0.6%  0.4%  0.3%  0.3%  0.2%  0.2%  0.2%  0.1%  0.1%  0.1%
[libx264 @ 0x2a7e1c0] ref B L1: 98.3%  1.7%
[libx264 @ 0x2a7e1c0] kb/s:6845.63
